<?xml version="1.0" standalone="no"?>
<!DOCTYPE svg PUBLIC "-//W3C//DTD SVG 1.1//EN" "http://www.w3.org/Graphics/SVG/1.1/DTD/svg11.dtd" >
<svg xmlns="http://www.w3.org/2000/svg">
<metadata></metadata>
<defs>
<font id="pokemon_gbregular" horiz-adv-x="2048" >
<font-face units-per-em="2048" ascent="1536" descent="-512" />
<missing-glyph horiz-adv-x="500" />
<glyph />
<glyph />
<glyph unicode="&#xd;" />
<glyph unicode=" " />
<glyph unicode="!" d="M504 760v780h256v256h524v-256h256v-780h-256v-256h-524v256h-256zM760 260h524v-524h-524v524z" />
<glyph unicode="$" d="M248 -8v268h256v244h-256v268h256v1024h1036v-780h-768v-244h256v-268h-256v-244h256v-268h-256v-256h-268v256h-256zM772 1284h500v244h-500v-244z" />
<glyph unicode="&#x26;" d="M-8 248v268h256v256h256v244h-256v524h256v256h524v-256h256v-524h-256v-244h256v-256h244v512h268v-524h-256v-244h256v-268h-268v256h-244v-256h-1036v256h-256zM516 260h500v244h-256v256h-244v-500zM772 1028h244v500h-244v-500z" />
<glyph unicode="'" d="M248 760v268h256v244h-256v524h524v-780h-256v-256h-268z" />
<glyph unicode="(" d="M760 504v780h256v256h256v256h524v-268h-512v-256h-256v-756h256v-256h512v-268h-524v256h-256v256h-256z" />
<glyph unicode=")" d="M-8 -8v268h512v256h256v756h-256v256h-512v268h524v-256h256v-256h256v-780h-256v-256h-256v-256h-524z" />
<glyph unicode="+" d="M248 760v268h512v512h268v-512h512v-268h-512v-512h-268v512h-512z" />
<glyph unicode="," d="M248 4h256v244h-256v524h524v-780h-256v-256h-268v268z" />
<glyph unicode="-" d="M248 504v268h1548v-268h-1548z" />
<glyph unicode="." d="M248 -8v524h524v-524h-524z" />
<glyph unicode="/" d="M-8 4h256v256h256v256h256v256h256v256h256v256h256v256h268v-268h-256v-256h-256v-256h-256v-256h-256v-256h-256v-256h-256v-256h-268v268z" />
<glyph unicode="0" d="M-8 504v524h256v256h256v256h780v-256h256v-256h256v-524h-256v-256h-256v-256h-780v256h-256v256h-256zM516 516h256v-256h500v756h-256v256h-500v-756z" />
<glyph unicode="1" d="M248 -8v268h512v756h-256v268h256v256h524v-1280h512v-268h-1548z" />
<glyph unicode="2" d="M-8 -8v524h256v256h768v256h256v244h-756v-256h-524v268h256v256h1292v-256h256v-524h-512v-256h-512v-244h1024v-268h-1804z" />
<glyph unicode="3" d="M-8 248v268h524v-256h756v500h-768v268h512v244h-768v268h1548v-268h-256v-256h-256v-244h512v-524h-256v-256h-1292v256h-256z" />
<glyph unicode="4" d="M-8 248v524h256v256h256v256h256v256h780v-1024h256v-268h-256v-256h-524v256h-1024zM516 516h500v500h-244v-256h-256v-244z" />
<glyph unicode="5" d="M-8 248v268h524v-256h756v500h-1280v780h1548v-268h-1024v-244h1024v-256h256v-524h-256v-256h-1292v256h-256z" />
<glyph unicode="6" d="M-8 248v1036h256v256h1292v-268h-1024v-244h1024v-256h256v-524h-256v-256h-1292v256h-256zM516 260h756v500h-756v-500z" />
<glyph unicode="7" d="M-8 1016v524h1804v-524h-256v-256h-256v-256h-256v-512h-524v524h256v256h256v256h256v244h-756v-256h-524z" />
<glyph unicode="8" d="M-8 248v524h256v244h-256v268h256v256h1292v-256h256v-268h-256v-244h256v-524h-256v-256h-1292v256h-256zM516 260h756v500h-756v-500zM516 1028h756v244h-756v-244z" />
<glyph unicode="9" d="M-8 760v524h256v256h1292v-256h256v-1036h-256v-256h-1292v268h1024v244h-1024v256h-256zM516 772h756v500h-756v-500z" />
<glyph unicode=":" d="M760 -8v524h524v-524h-524zM760 1016v524h524v-524h-524z" />
<glyph unicode=";" d="M760 4h256v244h-256v524h524v-780h-256v-256h-268v268zM760 1016v524h524v-524h-524z" />
<glyph unicode="?" d="M-8 760v524h256v256h1548v-256h256v-268h-256v-256h-512v-256h-524v268h256v256h256v244h-500v-256h-256v-256h-524zM760 260h524v-524h-524v524z" />
<glyph unicode="A" d="M-8 -8v524h256v512h256v512h256v256h268v-256h256v-512h256v-512h256v-524h-268v512h-1268v-512h-268zM516 772h756v244h-256v512h-244v-512h-256v-244z" />
<glyph unicode="B" d="M-8 -8v1804h1292v-256h256v-768h256v-524h-256v-256h-1548zM260 260h1268v500h-1268v-500zM260 1028h1012v500h-1012v-500z" />
<glyph unicode="C" d="M-8 504v780h256v256h256v256h1036v-256h256v-268h-268v256h-1012v-256h-256v-756h256v-256h1012v256h268v-268h-256v-256h-1036v256h-256v256h-256z" />
<glyph unicode="D" d="M-8 -8v1804h1292v-256h256v-256h256v-780h-256v-256h-256v-256h-1292zM260 260h1012v256h256v756h-256v256h-1012v-1268z" />
<glyph unicode="E" d="M-8 -8v1804h1804v-268h-1536v-500h1280v-268h-1280v-500h1536v-268h-1804z" />
<glyph unicode="F" d="M-8 -8v1804h1804v-268h-1536v-500h1280v-268h-1280v-768h-268z" />
<glyph unicode="G" d="M-8 504v780h256v256h256v256h1036v-256h256v-268h-268v256h-1012v-256h-256v-756h256v-256h1012v500h-768v268h1036v-780h-256v-256h-1036v256h-256v256h-256z" />
<glyph unicode="H" d="M-8 -8v1804h268v-768h1268v768h268v-1804h-268v768h-1268v-768h-268z" />
<glyph unicode="I" d="M248 -8v268h512v1268h-512v268h1292v-268h-512v-1268h512v-268h-1292z" />
<glyph unicode="J" d="M-8 248v524h268v-512h756v1268h-768v268h1548v-268h-512v-1280h-256v-256h-780v256h-256z" />
<glyph unicode="K" d="M-8 -8v1804h268v-1024h244v256h256v256h256v256h256v256h268v-268h-256v-256h-256v-500h256v-256h256v-256h256v-268h-268v256h-256v256h-256v256h-500v-256h-256v-512h-268z" />
<glyph unicode="L" d="M-8 -8v1804h268v-1536h1536v-268h-1804z" />
<glyph unicode="M" d="M-8 -8v1804h268v-256h256v-256h256v-256h244v256h256v256h256v256h268v-1804h-268v1280h-244v-256h-256v-256h-268v256h-256v256h-244v-1280h-268z" />
<glyph unicode="N" d="M-8 -8v1804h268v-256h256v-256h256v-256h256v-256h256v-256h244v1280h268v-1804h-268v256h-256v256h-256v256h-256v256h-256v256h-244v-1280h-268z" />
<glyph unicode="O" d="M-8 504v780h256v256h256v256h780v-256h256v-256h256v-780h-256v-256h-256v-256h-780v256h-256v256h-256zM260 516h256v-256h756v256h256v756h-256v256h-756v-256h-256v-756z" />
<glyph unicode="P" d="M-8 -8v1804h1548v-256h256v-524h-256v-256h-1280v-768h-268zM260 1028h1268v500h-1268v-500z" />
<glyph unicode="Q" d="M-8 504v780h256v256h256v256h780v-256h256v-256h256v-780h-256v-244h256v-268h-268v256h-244v-256h-780v256h-256v256h-256zM260 516h256v-256h756v244h-256v268h268v-256h244v756h-256v256h-756v-256h-256v-756z" />
<glyph unicode="R" d="M-8 -8v1804h1548v-256h256v-524h-256v-256h-256v-244h256v-256h256v-268h-268v256h-256v256h-256v256h-756v-768h-268zM260 1028h1268v500h-1268v-500z" />
<glyph unicode="S" d="M-8 248v268h268v-256h1268v500h-1280v256h-256v524h256v256h1036v-256h256v-268h-268v256h-1012v-500h1280v-256h256v-524h-256v-256h-1292v256h-256z" />
<glyph unicode="T" d="M-8 1528v268h1804v-268h-768v-1536h-268v1536h-768z" />
<glyph unicode="U" d="M-8 504v1292h268v-1280h256v-256h1012v1536h268v-1804h-1292v256h-256v256h-256z" />
<glyph unicode="V" d="M-8 1272v524h268v-512h256v-512h256v-512h244v512h256v512h256v512h268v-524h-256v-512h-256v-512h-256v-256h-268v256h-256v512h-256v512h-256z" />
<glyph unicode="W" d="M-8 -8v1804h268v-1024h244v512h256v256h268v-256h256v-512h244v1024h268v-1804h-268v256h-256v512h-256v512h-244v-512h-256v-512h-256v-256h-268z" />
<glyph unicode="X" d="M-8 -8v268h256v256h256v256h256v244h-256v256h-256v256h-256v268h524v-512h256v-256h244v256h256v512h524v-268h-256v-256h-256v-256h-256v-244h256v-256h256v-256h256v-268h-524v512h-256v256h-244v-256h-256v-512h-524z" />
<glyph unicode="Y" d="M-8 1528v268h268v-256h256v-256h256v-256h244v256h256v256h256v256h268v-268h-256v-256h-256v-256h-256v-1024h-268v1024h-256v256h-256v256h-256z" />
<glyph unicode="Z" d="M-8 -8v268h256v256h256v256h256v256h256v256h256v244h-1280v268h1804v-268h-256v-256h-256v-256h-256v-256h-256v-256h-256v-244h1280v-268h-1804z" />
<glyph unicode="[" d="M1272 -8v1804h780v-268h-512v-1268h512v-268h-780z" />
<glyph unicode="]" d="M-8 -8v268h512v1268h-512v268h780v-1804h-780z" />
<glyph unicode="a" d="M248 248v268h256v256h768v244h-768v268h780v-256h256v-768h256v-268h-1292v256h-256zM516 260h756v244h-756v-244z" />
<glyph unicode="b" d="M248 -8v1804h268v-768h1024v-256h256v-524h-256v-256h-1292zM516 260h1012v500h-1012v-500z" />
<glyph unicode="c" d="M248 248v780h256v256h1036v-256h256v-268h-268v256h-1012v-756h1012v256h268v-268h-256v-256h-1036v256h-256z" />
<glyph unicode="d" d="M248 248v524h256v256h1024v768h268v-1804h-1292v256h-256zM516 260h1012v500h-1012v-500z" />
<glyph unicode="e" d="M248 248v780h256v256h1036v-256h256v-524h-1280v-244h1280v-268h-1292v256h-256zM516 772h1012v244h-1012v-244z" />
<glyph unicode="f" d="M248 760v268h512v512h256v256h524v-256h256v-268h-268v256h-500v-500h768v-268h-768v-768h-268v768h-512z" />
<glyph unicode="g" d="M248 4h1280v244h-1024v256h-256v524h256v256h1292v-1292h-256v-256h-1292v268zM516 516h1012v500h-1012v-500z" />
<glyph unicode="h" d="M248 -8v1804h268v-768h768v-256h256v-780h-268v768h-756v-768h-268z" />
<glyph unicode="i" d="M760 -8v1036h268v-1036h-268zM760 1272v268h268v-268h-268z" />
<glyph unicode="j" d="M504 4h512v1024h268v-1036h-256v-256h-524v268zM1016 1272v268h268v-268h-268z" />
<glyph unicode="k" d="M248 -8v1804h268v-1024h244v256h512v256h524v-268h-512v-256h-512v-244h512v-256h512v-268h-524v256h-512v256h-244v-512h-268z" />
<glyph unicode="l" d="M760 -8v1804h268v-1804h-268z" />
<glyph unicode="m" d="M-8 -8v1292h780v-256h244v256h524v-256h256v-1036h-268v1024h-500v-1024h-268v1024h-500v-1024h-268z" />
<glyph unicode="n" d="M504 -8v1292h1036v-256h256v-1036h-268v1024h-756v-1024h-268z" />
<glyph unicode="o" d="M248 248v780h256v256h1036v-256h256v-780h-256v-256h-1036v256h-256zM516 260h1012v756h-1012v-756z" />
<glyph unicode="p" d="M248 -264v1548h1292v-256h256v-524h-256v-256h-1024v-512h-268zM516 516h1012v500h-1012v-500z" />
<glyph unicode="q" d="M248 504v524h256v256h1292v-1548h-268v512h-1024v256h-256zM516 516h1012v500h-1012v-500z" />
<glyph unicode="r" d="M248 -8v1292h268v-512h244v256h256v256h780v-268h-768v-256h-256v-256h-256v-512h-268z" />
<glyph unicode="s" d="M248 -8v268h1280v244h-1024v256h-256v268h256v256h1036v-268h-1024v-244h1024v-256h256v-268h-256v-256h-1292z" />
<glyph unicode="t" d="M248 1016v268h512v256h268v-256h512v-268h-512v-756h512v-268h-524v256h-256v768h-512z" />
<glyph unicode="u" d="M248 248v1036h268v-1024h756v1024h268v-1292h-1036v256h-256z" />
<glyph unicode="v" d="M248 504v780h268v-768h256v-256h244v256h256v768h268v-780h-256v-256h-256v-256h-268v256h-256v256h-256z" />
<glyph unicode="w" d="M-8 248v1036h268v-1024h244v256h256v512h268v-512h256v-256h244v1024h268v-1036h-256v-256h-268v256h-256v256h-244v-256h-256v-256h-268v256h-256z" />
<glyph unicode="x" d="M-8 1016v268h524v-256h256v-256h244v256h256v256h268v-268h-256v-256h-256v-244h256v-256h512v-268h-524v256h-256v256h-244v-256h-256v-256h-268v268h256v256h256v244h-256v256h-512z" />
<glyph unicode="y" d="M248 4h1024v244h-768v256h-256v780h268v-768h756v768h268v-1292h-256v-256h-1036v268z" />
<glyph unicode="z" d="M248 -8v268h256v256h256v256h512v244h-1024v268h1548v-268h-256v-256h-256v-256h-512v-244h1024v-268h-1548z" />
<glyph unicode="&#xa0;" />
<glyph unicode="&#xa1;" d="M504 -8v780h256v256h524v-256h256v-780h-256v-256h-524v256h-256zM760 1272v524h524v-524h-524z" />
<glyph unicode="&#xad;" d="M248 504v268h1548v-268h-1548z" />
<glyph unicode="&#xb0;" d="M248 760v524h256v256h524v-256h256v-524h-256v-256h-524v256h-256zM516 772h500v500h-500v-500z" />
<glyph unicode="&#xbf;" d="M-8 248v268h256v256h512v256h524v-268h-512v-500h500v256h256v256h524v-268h-256v-512h-1548v256h-256zM760 1272v524h524v-524h-524z" />
<glyph unicode="&#xc0;" d="M-8 -8v524h256v256h256v256h256v256h256v244h-256v268h268v-256h256v-268h-256v-244h256v-256h256v-256h256v-524h-268v256h-1268v-256h-268zM516 516h756v244h-256v256h-244v-256h-256v-244z" />
<glyph unicode="&#xc1;" d="M-8 -8v524h256v256h256v256h256v244h-256v268h256v256h268v-268h-256v-244h256v-256h256v-256h256v-256h256v-524h-268v256h-1268v-256h-268zM516 516h756v244h-256v256h-244v-256h-256v-244z" />
<glyph unicode="&#xc4;" d="M-8 -8v524h256v512h256v256h256v244h-256v268h268v-256h244v256h268v-268h-256v-244h256v-256h256v-512h256v-524h-268v512h-1268v-512h-268zM516 772h756v244h-256v256h-244v-256h-256v-244z" />
<glyph unicode="&#xc8;" d="M-8 -8v1292h1024v244h-256v268h268v-256h256v-256h512v-268h-1536v-244h1280v-268h-1280v-244h1536v-268h-1804z" />
<glyph unicode="&#xc9;" d="M-8 -8v1292h512v256h256v256h268v-268h-256v-244h1024v-268h-1536v-244h1280v-268h-1280v-244h1536v-268h-1804z" />
<glyph unicode="&#xcc;" d="M248 -8v268h512v756h-512v268h768v244h-256v268h268v-256h256v-256h256v-268h-512v-756h512v-268h-1292z" />
<glyph unicode="&#xcd;" d="M248 -8v268h512v756h-512v268h256v256h256v256h268v-268h-256v-244h768v-268h-512v-756h512v-268h-1292z" />
<glyph unicode="&#xd1;" d="M-8 -8v1292h256v256h256v256h524v-256h500v256h268v-268h-256v-244h256v-1292h-524v256h-256v256h-256v256h-256v256h-244v-1024h-268zM516 1028h256v-256h256v-256h256v-256h244v1012h-512v256h-500v-500z" />
<glyph unicode="&#xd2;" d="M-8 248v780h256v256h768v244h-256v268h268v-256h256v-256h256v-256h256v-780h-256v-256h-1292v256h-256zM260 260h1268v756h-1268v-756z" />
<glyph unicode="&#xd3;" d="M-8 248v780h256v256h256v256h256v256h268v-268h-256v-244h768v-256h256v-780h-256v-256h-1292v256h-256zM260 260h1268v756h-1268v-756z" />
<glyph unicode="&#xd6;" d="M-8 504v524h256v256h256v512h268v-256h244v256h268v-512h256v-256h256v-524h-256v-256h-256v-256h-780v256h-256v256h-256zM260 516h256v-256h756v256h256v500h-256v256h-756v-256h-256v-500z" />
<glyph unicode="&#xd7;" d="M248 -8v268h256v256h256v244h-256v256h-256v268h268v-256h256v-256h244v256h256v256h268v-268h-256v-256h-256v-244h256v-256h256v-268h-268v256h-256v256h-244v-256h-256v-256h-268z" />
<glyph unicode="&#xd9;" d="M-8 504v780h268v-768h256v-256h1012v1024h268v-1292h-1292v256h-256v256h-256zM760 1528v268h268v-256h256v-268h-268v256h-256z" />
<glyph unicode="&#xda;" d="M-8 504v780h268v-768h256v-256h1012v1024h268v-1292h-1292v256h-256v256h-256zM504 1272v268h256v256h268v-268h-256v-256h-268z" />
<glyph unicode="&#xdc;" d="M-8 504v1036h268v-1024h256v-256h1012v1280h268v-1548h-1292v256h-256v256h-256zM504 1528v268h268v-268h-268zM1016 1528v268h268v-268h-268z" />
<glyph unicode="&#xdf;" horiz-adv-x="1792" d="M-8 -8v1804h1036v-256h256v-768h256v-524h-256v-256h-524v256h-256v268h268v-256h500v500h-768v268h512v500h-756v-1536h-268z" />
<glyph unicode="&#xe0;" d="M248 248v268h256v256h768v244h-768v268h256v244h-256v268h268v-256h256v-256h256v-256h256v-768h256v-268h-1292v256h-256zM516 260h756v244h-756v-244z" />
<glyph unicode="&#xe1;" d="M248 248v268h256v256h768v244h-768v268h256v256h256v256h268v-268h-256v-244h256v-256h256v-768h256v-268h-1292v256h-256zM516 260h756v244h-756v-244z" />
<glyph unicode="&#xe2;" d="M248 248v268h256v256h768v244h-768v524h256v256h268v-256h256v-512h256v-768h256v-268h-1292v256h-256zM516 260h756v244h-756v-244zM772 1284h244v244h-244v-244z" />
<glyph unicode="&#xe4;" d="M248 248v268h256v256h768v244h-768v268h780v-256h256v-768h256v-268h-1292v256h-256zM504 1528v268h268v-268h-268zM516 260h756v244h-756v-244zM1016 1528v268h268v-268h-268z" />
<glyph unicode="&#xe7;" d="M248 504v524h256v256h1036v-256h256v-268h-268v256h-1012v-500h1024v-268h-256v-512h-524v268h256v244h-512v256h-256z" />
<glyph unicode="&#xe8;" d="M248 248v780h256v256h512v244h-256v268h268v-256h256v-256h256v-256h256v-524h-1280v-244h1280v-268h-1292v256h-256zM516 772h1012v244h-1012v-244z" />
<glyph unicode="&#xe9;" d="M-8 1272v268h512v256h524v-268h-512v-244h1024v-256h256v-524h-1280v-244h1280v-268h-1292v256h-256v780h256v244h-512zM516 772h1012v244h-1012v-244z" />
<glyph unicode="&#xea;" d="M248 248v780h256v512h256v256h268v-256h256v-256h256v-256h256v-524h-1280v-244h1280v-268h-1292v256h-256zM516 772h1012v244h-1012v-244zM772 1284h244v244h-244v-244z" />
<glyph unicode="&#xeb;" d="M248 248v780h256v256h1036v-256h256v-524h-1280v-244h1280v-268h-1292v256h-256zM504 1528v268h268v-268h-268zM516 772h1012v244h-1012v-244zM1016 1528v268h268v-268h-268z" />
<glyph unicode="&#xec;" d="M504 1528v268h268v-256h256v-268h-268v256h-256zM760 -8v1036h268v-1036h-268z" />
<glyph unicode="&#xed;" d="M760 -8v1036h268v-1036h-268zM760 1272v268h256v256h268v-268h-256v-256h-268z" />
<glyph unicode="&#xee;" d="M504 1272v268h256v256h268v-256h256v-268h-268v256h-244v-256h-268zM760 -8v1036h268v-1036h-268z" />
<glyph unicode="&#xef;" d="M248 1272v268h268v-268h-268zM760 -8v1036h268v-1036h-268zM760 1272v268h268v-268h-268z" />
<glyph unicode="&#xf1;" d="M248 1272v268h256v256h524v-256h500v256h268v-268h-256v-500h256v-1036h-268v1024h-756v-1024h-268v1280h-256zM516 1284h500v244h-500v-244z" />
<glyph unicode="&#xf2;" d="M248 248v780h256v256h256v244h-256v268h268v-256h256v-256h512v-256h256v-780h-256v-256h-1036v256h-256zM516 260h1012v756h-1012v-756z" />
<glyph unicode="&#xf3;" d="M248 248v780h256v256h256v256h256v256h268v-268h-256v-244h512v-256h256v-780h-256v-256h-1036v256h-256zM516 260h1012v756h-1012v-756z" />
<glyph unicode="&#xf4;" d="M248 248v780h256v512h256v256h268v-256h256v-256h256v-256h256v-780h-256v-256h-1036v256h-256zM516 260h1012v756h-1012v-756zM772 1284h244v244h-244v-244z" />
<glyph unicode="&#xf6;" d="M248 248v780h256v256h1036v-256h256v-780h-256v-256h-1036v256h-256zM504 1528v268h268v-268h-268zM516 260h1012v756h-1012v-756zM1016 1528v268h268v-268h-268z" />
<glyph unicode="&#xf9;" d="M248 248v1036h268v-1024h756v1024h268v-1292h-1036v256h-256zM504 1528v268h268v-256h256v-268h-268v256h-256z" />
<glyph unicode="&#xfa;" d="M248 248v1036h268v-1024h756v1024h268v-1292h-1036v256h-256zM760 1272v268h256v256h268v-268h-256v-256h-268z" />
<glyph unicode="&#xfb;" d="M248 248v1036h256v256h256v256h268v-256h256v-256h256v-1292h-1036v256h-256zM516 260h756v1012h-256v256h-244v-256h-256v-1012z" />
<glyph unicode="&#xfc;" d="M248 248v1036h268v-1024h756v1024h268v-1292h-1036v256h-256zM504 1528v268h268v-268h-268zM1016 1528v268h268v-268h-268z" />
<glyph unicode="&#x2000;" horiz-adv-x="898" />
<glyph unicode="&#x2001;" horiz-adv-x="1796" />
<glyph unicode="&#x2002;" horiz-adv-x="898" />
<glyph unicode="&#x2003;" horiz-adv-x="1796" />
<glyph unicode="&#x2004;" horiz-adv-x="598" />
<glyph unicode="&#x2005;" horiz-adv-x="449" />
<glyph unicode="&#x2006;" horiz-adv-x="299" />
<glyph unicode="&#x2007;" horiz-adv-x="299" />
<glyph unicode="&#x2008;" horiz-adv-x="224" />
<glyph unicode="&#x2009;" horiz-adv-x="359" />
<glyph unicode="&#x200a;" horiz-adv-x="99" />
<glyph unicode="&#x2010;" d="M248 504v268h1548v-268h-1548z" />
<glyph unicode="&#x2011;" d="M248 504v268h1548v-268h-1548z" />
<glyph unicode="&#x2012;" d="M248 504v268h1548v-268h-1548z" />
<glyph unicode="&#x2013;" horiz-adv-x="1524" d="M248 504v268h1024v-268h-1024z" />
<glyph unicode="&#x2014;" horiz-adv-x="2548" d="M248 504v268h2048v-268h-2048z" />
<glyph unicode="&#x202f;" horiz-adv-x="359" />
<glyph unicode="&#x205f;" horiz-adv-x="449" />
<glyph unicode="&#x25fc;" horiz-adv-x="1280" d="M0 0v1280h1280v-1280h-1280z" />
</font>
</defs>
</svg>
